<svg xmlns="http://www.w3.org/2000/svg" viewBox="0 0 250 250"><defs><style>.cls-1{isolation:isolate;}.cls-2,.cls-6{fill:none;}.cls-3{mix-blend-mode:multiply;}.cls-4{fill:#daa520;}.cls-5{fill:gold;}.cls-6{stroke:#daa520;stroke-miterlimit:10;}</style></defs><title>Asset 1</title><g class="cls-1"><g id="Layer_2" data-name="Layer 2"><g id="Layer_1-2" data-name="Layer 1"><rect class="cls-2" width="250" height="250"/><g class="cls-3"><path class="cls-4" d="M221.76,60.51a56.72,56.72,0,0,0-42.2-18.37A53.11,53.11,0,0,0,146.4,53.58a68.27,68.27,0,0,0-13.4,14,68.27,68.27,0,0,0-13.4-14A53.11,53.11,0,0,0,86.44,42.14a56.72,56.72,0,0,0-42.2,18.37c-10.8,11.71-16.74,27.7-16.74,45,0,17.85,6.65,34.18,20.93,51.41,12.77,15.41,31.13,31,52.38,49.17,7.26,6.18,15.49,13.2,24,20.67a12.4,12.4,0,0,0,16.31,0c8.55-7.47,16.78-14.49,24-20.68C186.45,188,204.8,172.37,217.57,157c14.28-17.23,20.93-33.56,20.93-51.41C238.5,88.21,232.56,72.22,221.76,60.51Z"/></g><path class="cls-5" d="M203.76,44.51a56.72,56.72,0,0,0-42.2-18.37A53.11,53.11,0,0,0,128.4,37.58a68.27,68.27,0,0,0-13.4,14,68.27,68.27,0,0,0-13.4-14A53.11,53.11,0,0,0,68.44,26.14a56.72,56.72,0,0,0-42.2,18.37C15.44,56.22,9.5,72.21,9.5,89.55c0,17.85,6.65,34.18,20.93,51.41,12.77,15.41,31.13,31,52.38,49.17,7.26,6.18,15.49,13.2,24,20.67a12.4,12.4,0,0,0,16.31,0c8.55-7.47,16.78-14.49,24-20.68C168.45,172,186.8,156.37,199.57,141c14.28-17.23,20.93-33.56,20.93-51.41C220.5,72.21,214.56,56.22,203.76,44.51Z"/><circle class="cls-4" cx="118.25" cy="114.64" r="27.75"/><circle class="cls-6" cx="118.25" cy="114.64" r="27.75"/><circle class="cls-5" cx="108.25" cy="104.64" r="27.75"/><circle class="cls-6" cx="108.25" cy="104.64" r="27.75"/></g></g></g></svg>